<?xml version="1.0" encoding="UTF-8" standalone="no"?>
<!-- Created with Inkscape (http://www.inkscape.org/) -->
<svg xmlns:i="http://ns.adobe.com/AdobeIllustrator/10.0/" xmlns:dc="http://purl.org/dc/elements/1.1/" xmlns:cc="http://web.resource.org/cc/" xmlns:rdf="http://www.w3.org/1999/02/22-rdf-syntax-ns#" xmlns:svg="http://www.w3.org/2000/svg" xmlns="http://www.w3.org/2000/svg" xmlns:xlink="http://www.w3.org/1999/xlink" xmlns:sodipodi="http://sodipodi.sourceforge.net/DTD/sodipodi-0.dtd" xmlns:inkscape="http://www.inkscape.org/namespaces/inkscape" width="128" height="128" id="svg1800" sodipodi:version="0.32" inkscape:version="0.45.1" sodipodi:docbase="/home/scott/work/cc/svn/liblicense/trunk/src/gnome" sodipodi:docname="emblem-cc.svg" inkscape:output_extension="org.inkscape.output.svg.inkscape" version="1.0">
  <defs id="defs3">
    <linearGradient inkscape:collect="always" id="linearGradient3101">
      <stop style="stop-color: rgb(0, 0, 0); stop-opacity: 1;" offset="0" id="stop3103"/>
      <stop style="stop-color: rgb(0, 0, 0); stop-opacity: 0;" offset="1" id="stop3105"/>
    </linearGradient>
    <radialGradient inkscape:collect="always" xlink:href="#linearGradient3101" id="radialGradient3107" cx="17.3125" cy="25.53125" fx="17.3125" fy="25.53125" r="9.6875" gradientTransform="matrix(1, 0, 0, 0.351613, 0, 16.5541)" gradientUnits="userSpaceOnUse"/>
  </defs>
  <sodipodi:namedview fill="#edd400" id="base" pagecolor="#ffffff" bordercolor="#666666" borderopacity="0.20392157" inkscape:pageopacity="0.0" inkscape:pageshadow="2" inkscape:zoom="1" inkscape:cx="23.850757" inkscape:cy="20.43733" inkscape:current-layer="layer1" showgrid="false" inkscape:grid-bbox="true" inkscape:document-units="px" inkscape:showpageshadow="false" inkscape:window-width="822" inkscape:window-height="620" inkscape:window-x="560" inkscape:window-y="116" width="128px" height="128px"/>
  <metadata id="metadata4">
    <rdf:RDF>
      <cc:Work rdf:about="">
        <dc:format>image/svg+xml</dc:format>
        <dc:type rdf:resource="http://purl.org/dc/dcmitype/StillImage"/>
        <cc:license rdf:resource="http://creativecommons.org/licenses/by-sa/2.0/"/>
        <dc:title>Emblem Creative Commons</dc:title>
        <dc:creator>
          <cc:Agent>
            <dc:title>Alex Roberts</dc:title>
          </cc:Agent>
        </dc:creator>
        <dc:subject>
          <rdf:Bag>
            <rdf:li>emblem</rdf:li>
            <rdf:li>photos</rdf:li>
            <rdf:li>pictures</rdf:li>
            <rdf:li>documents</rdf:li>
            <rdf:li>licensing</rdf:li>
            <rdf:li>cc</rdf:li>
            <rdf:li>creative commons</rdf:li>
          </rdf:Bag>
        </dc:subject>
      </cc:Work>
      <cc:License rdf:about="http://creativecommons.org/licenses/by-sa/2.0/">
        <cc:permits rdf:resource="http://web.resource.org/cc/Reproduction"/>
        <cc:permits rdf:resource="http://web.resource.org/cc/Distribution"/>
        <cc:requires rdf:resource="http://web.resource.org/cc/Notice"/>
        <cc:requires rdf:resource="http://web.resource.org/cc/Attribution"/>
        <cc:permits rdf:resource="http://web.resource.org/cc/DerivativeWorks"/>
        <cc:requires rdf:resource="http://web.resource.org/cc/ShareAlike"/>
      </cc:License>
    </rdf:RDF>
  </metadata>
  <g id="layer1" inkscape:label="Layer 1" inkscape:groupmode="layer">
    <path sodipodi:type="arc" style="overflow: visible; marker: none; opacity: 0.409091; color: rgb(0, 0, 0); fill: url(#radialGradient3107) rgb(0, 0, 0); fill-opacity: 1; fill-rule: nonzero; stroke: none; stroke-width: 1.10534; stroke-linecap: butt; stroke-linejoin: miter; stroke-miterlimit: 4; stroke-dasharray: none; stroke-dashoffset: 0pt; stroke-opacity: 1; visibility: visible; display: inline;" id="path3099" sodipodi:cx="17.3125" sodipodi:cy="25.53125" sodipodi:rx="9.6875" sodipodi:ry="3.40625" d="M 27 25.53125 A 9.6875 3.40625 0 1 1  7.625,25.53125 A 9.6875 3.40625 0 1 1  27 25.53125 z" transform="matrix(3.98798, 0, 0, 3.98798, -5.71809, 12.4638)"/>
    <g id="g2873" transform="matrix(2.73847, 0, 0, 2.73847, -3.18802, -1.89737)">
      <path transform="matrix(0.664453, 0, 0, 0.664453, -49.3656, 8.71413)" d="M 139.82005 20.602827 A 28.971722 28.971722 0 1 1  81.876606,20.602827 A 28.971722 28.971722 0 1 1  139.82005 20.602827 z" sodipodi:ry="28.971722" sodipodi:rx="28.971722" sodipodi:cy="20.602827" sodipodi:cx="110.84833" id="path2241" style="fill: rgb(250, 250, 250); fill-opacity: 1; stroke: none; stroke-width: 1; stroke-miterlimit: 4; stroke-dasharray: none; stroke-opacity: 1;" sodipodi:type="arc"/>
      <path i:knockout="Off" clip-rule="evenodd" d="M 24.042362,18.870784 C 22.839669,16.680759 20.787698,15.809177 18.405827,15.809177 C 14.93884,15.809177 12.179362,18.258194 12.179362,22.404078 C 12.179362,26.619742 14.773554,28.998978 18.524079,28.998978 C 20.930144,28.998978 22.981443,27.679864 24.113585,25.67838 L 21.471693,24.335782 C 20.881765,25.748831 19.986129,26.17288 18.85398,26.17288 C 16.896075,26.17288 16.000437,24.547806 16.000437,22.404748 C 16.000437,20.261691 16.754977,18.635947 18.85398,18.635947 C 19.419716,18.635947 20.551864,18.942577 21.212337,20.354955 L 24.042362,18.870784 z " id="path51" style="fill: rgb(23, 26, 27); fill-opacity: 1; fill-rule: evenodd;"/>
      <path i:knockout="Off" clip-rule="evenodd" d="M 36.325974,18.870784 C 35.122609,16.680759 33.07131,15.809177 30.689438,15.809177 C 27.222448,15.809177 24.462303,18.258194 24.462303,22.404078 C 24.462303,26.619742 27.057165,28.998978 30.80702,28.998978 C 33.213077,28.998978 35.264377,27.679864 36.396525,25.67838 L 33.754627,24.335782 C 33.165376,25.748831 32.269062,26.17288 31.136921,26.17288 C 29.179688,26.17288 28.282703,24.547806 28.282703,22.404748 C 28.282703,20.261691 29.037913,18.635947 31.136921,18.635947 C 31.702656,18.635947 32.834804,18.942577 33.495948,20.354955 L 36.325974,18.870784 z " id="path53" style="fill: rgb(23, 26, 27); fill-opacity: 1; fill-rule: evenodd;"/>
      <path i:knockout="Off" clip-rule="evenodd" d="M 24.258715,1.1412433 C 18.425308,1.1412433 13.292023,3.297049 9.325146,7.3161206 C 5.2420312,11.452611 3.0254449,16.811597 3.0254449,22.404078 C 3.0254449,28.054262 5.1835759,33.297171 9.2673625,37.375287 C 13.350477,41.452733 18.659129,43.666242 24.258715,43.666242 C 29.8583,43.666242 35.283865,41.452733 39.483887,37.316913 C 43.450765,33.413918 45.550443,28.229384 45.550443,22.404078 C 45.550443,16.637146 43.450765,11.394237 39.425435,7.3744944 C 35.342317,3.297049 30.092121,1.1412433 24.258715,1.1412433 z M 24.317173,4.9865352 C 29.100399,4.9865352 33.358878,6.792098 36.684094,10.112697 C 39.950187,13.374921 41.700476,17.685862 41.700476,22.404078 C 41.700476,27.180667 40.008639,31.374861 36.741882,34.579382 C 33.299755,37.957684 28.866584,39.763917 24.316502,39.763917 C 19.707962,39.763917 15.391027,37.958355 12.066483,34.637756 C 8.7412678,31.316486 6.8747393,26.947843 6.8747393,22.404078 C 6.8747393,17.801939 8.7412678,13.433295 12.066483,10.054323 C 15.333244,6.7343952 19.533942,4.9865352 24.317173,4.9865352 z " id="path49" style="fill: rgb(22, 25, 26); fill-opacity: 1; fill-rule: evenodd; stroke: none; stroke-width: 1.01562; stroke-opacity: 1;"/>
      <path sodipodi:type="arc" style="opacity: 0.3; fill: none; fill-opacity: 0.101961; stroke: rgb(86, 88, 85); stroke-width: 0.634656; stroke-miterlimit: 4; stroke-dasharray: none; stroke-opacity: 1;" id="path2862" sodipodi:cx="23.823944" sodipodi:cy="22.260563" sodipodi:rx="19.514084" sodipodi:ry="19.514084" d="M 43.338028 22.260563 A 19.514084 19.514084 0 1 1  4.3098602,22.260563 A 19.514084 19.514084 0 1 1  43.338028 22.260563 z" transform="matrix(1.04695, 0, 0, 1.04695, -0.654539, -0.901958)"/>
      <path sodipodi:nodetypes="czssc" id="path2841" d="M 45.509247,22.353897 C 45.509247,34.090795 38.95065,17.687365 25.27186,22.772617 C 11.484746,27.898136 2.9842481,34.090795 2.9842481,22.353897 C 2.9842481,10.617 12.509849,1.091402 24.246748,1.091402 C 35.983667,1.091402 45.509247,10.617 45.509247,22.353897 z " style="fill: rgb(255, 254, 255); fill-opacity: 0.101961; fill-rule: nonzero; stroke: none; stroke-width: 1; stroke-linecap: round; stroke-linejoin: round; stroke-miterlimit: 4; stroke-dashoffset: 0pt; stroke-opacity: 1;"/>
    </g>
  </g>
</svg>